<svg width="180" height="180" viewBox="0 0 180 180" fill="none" xmlns="http://www.w3.org/2000/svg">
<path d="M111.151 24.2785L110.141 24.9415C110.011 25.0267 109.855 25.062 109.702 25.0407C109.549 25.0194 109.41 24.9431 109.311 24.826C108.181 23.51 107.303 22.0413 106.677 20.4199C106.513 19.9953 106.656 19.7507 107.106 19.6862C107.985 19.5558 108.603 18.729 108.655 17.8351C108.764 16.0424 107.873 15.0367 105.981 14.8182C105.904 14.8088 105.834 14.7707 105.785 14.7119C105.736 14.653 105.711 14.5777 105.716 14.5016C105.833 12.6692 106.232 10.9 106.912 9.19419C106.962 9.06756 107.054 9.01044 107.188 9.02286C107.573 9.05514 107.946 9.111 108.309 9.19046C110.015 9.55546 111.184 8.41576 110.975 6.70248C110.908 6.1587 110.499 5.72665 110.219 5.27971C110.095 5.07858 110.118 4.89608 110.286 4.7322C111.605 3.45096 113.138 2.51735 114.886 1.93136C115.013 1.88915 115.122 1.91646 115.214 2.0133C115.821 2.65019 115.996 3.36157 116.804 3.67816C119.114 4.57949 119.888 3.10831 120.402 1.17528C120.442 1.02878 120.538 0.960496 120.689 0.970428C122.556 1.07223 124.348 1.49434 126.064 2.23677C126.198 2.29636 126.25 2.39816 126.22 2.54218C126.071 3.24612 125.728 3.9426 125.922 4.62791C126.522 6.76952 128.421 6.44549 129.889 5.41752C129.956 5.37072 130.039 5.35055 130.121 5.36086C130.203 5.37116 130.278 5.41122 130.332 5.47338C131.561 6.88622 132.55 8.453 133.3 10.1737C133.32 10.2188 133.329 10.2674 133.328 10.3164C133.327 10.3654 133.316 10.4135 133.295 10.4574C133.273 10.5013 133.243 10.54 133.205 10.5708C133.168 10.6015 133.124 10.6236 133.077 10.6356C130.123 11.4028 130.85 15.6376 133.758 15.578C133.822 15.5765 133.885 15.5887 133.943 15.6137C134.002 15.6386 134.054 15.6759 134.097 15.7229C134.14 15.7698 134.172 15.8254 134.191 15.8859C134.21 15.9464 134.217 16.0103 134.209 16.0734C133.996 17.891 133.545 19.6415 132.857 21.325C132.802 21.4615 132.703 21.5124 132.559 21.4777C130.95 21.0903 129.166 21.0605 128.902 23.1314C128.79 24.0104 129.285 24.6696 129.822 25.3288C129.913 25.4406 129.906 25.5461 129.799 25.6454C128.391 26.9738 126.772 27.9608 124.942 28.6064C124.881 28.6283 124.814 28.6254 124.755 28.5981C124.696 28.5709 124.651 28.5216 124.63 28.4612C124.319 27.6045 123.752 27.0024 122.927 26.6548C122.786 26.5927 122.697 26.6374 122.659 26.7889L109.389 78.7311C109.382 78.7577 109.387 78.7858 109.401 78.8095C109.416 78.8332 109.44 78.8505 109.467 78.8578L129.214 83.9902C129.351 84.0249 129.402 84.1106 129.367 84.2472L126.566 95.0706C126.559 95.0951 126.543 95.1158 126.521 95.1284C126.5 95.1409 126.474 95.1443 126.451 95.1377L95.5932 87.1523C95.4467 87.1151 95.392 87.0232 95.4293 86.8767L111.4 24.4536C111.408 24.4216 111.406 24.3881 111.394 24.3574C111.382 24.3266 111.362 24.3001 111.335 24.2812C111.308 24.2623 111.276 24.252 111.243 24.2515C111.21 24.251 111.178 24.2604 111.151 24.2785ZM126.656 15.2503C126.656 13.4772 125.951 11.7767 124.698 10.5229C123.444 9.26911 121.743 8.56474 119.97 8.56474C118.197 8.56474 116.497 9.26911 115.243 10.5229C113.989 11.7767 113.285 13.4772 113.285 15.2503C113.285 17.0234 113.989 18.7239 115.243 19.9777C116.497 21.2314 118.197 21.9358 119.97 21.9358C121.743 21.9358 123.444 21.2314 124.698 19.9777C125.951 18.7239 126.656 17.0234 126.656 15.2503Z" fill="#F5A020"/>
<path d="M77.2508 39.9662L71.787 59.6839C71.7766 59.7199 71.7523 59.7504 71.7195 59.7686C71.6866 59.7867 71.648 59.7911 71.6119 59.7807L44.1956 52.2796C44.1774 52.2748 44.1604 52.2665 44.1455 52.2551C44.1305 52.2437 44.118 52.2294 44.1087 52.2131C44.0993 52.1968 44.0933 52.1788 44.0909 52.1602C44.0886 52.1415 44.09 52.1226 44.0951 52.1045L46.8438 42.0445C46.8485 42.0264 46.8568 42.0093 46.8683 41.9944C46.8797 41.9794 46.8939 41.9669 46.9102 41.9576C46.9265 41.9482 46.9445 41.9422 46.9632 41.9398C46.9818 41.9375 47.0007 41.9389 47.0188 41.944L62.5352 46.1862C62.5533 46.1913 62.5722 46.1927 62.5909 46.1904C62.6095 46.188 62.6275 46.182 62.6438 46.1726C62.6601 46.1633 62.6744 46.1508 62.6858 46.1358C62.6972 46.1209 62.7055 46.1038 62.7103 46.0857L68.163 26.3531C68.1734 26.3179 68.1971 26.2881 68.2291 26.27C68.261 26.252 68.2988 26.247 68.3343 26.2563L98.7004 34.3906C98.7364 34.401 98.7669 34.4253 98.785 34.4581C98.8032 34.4909 98.8076 34.5296 98.7972 34.5657L96.1677 44.6145C96.163 44.6326 96.1546 44.6497 96.1432 44.6646C96.1318 44.6796 96.1176 44.6921 96.1013 44.7015C96.085 44.7108 96.067 44.7168 96.0483 44.7192C96.0297 44.7215 96.0108 44.7201 95.9927 44.715L77.4222 39.8657C77.3861 39.8566 77.3479 39.862 77.3159 39.8809C77.2838 39.8997 77.2605 39.9303 77.2508 39.9662Z" fill="#F5A020"/>
<path d="M133.798 63.6244L153.486 68.9766C153.53 68.9888 153.568 69.0179 153.591 69.0576C153.614 69.0973 153.62 69.1444 153.609 69.1889L145.62 99.5065C145.608 99.5508 145.579 99.5884 145.539 99.6114C145.499 99.6344 145.452 99.6409 145.408 99.6294L135.407 97.067C135.385 97.0613 135.363 97.0512 135.345 97.0373C135.326 97.0233 135.31 97.0057 135.298 96.9856C135.287 96.9655 135.279 96.9432 135.276 96.9201C135.273 96.897 135.274 96.8734 135.281 96.8509L140.041 78.3251C140.052 78.2807 140.046 78.2336 140.023 78.1939C140 78.1542 139.962 78.1251 139.918 78.1128L120.226 72.7532C120.182 72.741 120.144 72.7119 120.121 72.6722C120.098 72.6325 120.092 72.5854 120.103 72.5409L127.478 45.1582C127.49 45.114 127.519 45.0763 127.559 45.0533C127.598 45.0304 127.646 45.0239 127.69 45.0353L137.716 47.7244C137.761 47.7366 137.798 47.7657 137.821 47.8054C137.844 47.8451 137.851 47.8923 137.839 47.9367L133.675 63.4121C133.664 63.4566 133.67 63.5037 133.693 63.5434C133.716 63.5831 133.754 63.6122 133.798 63.6244Z" fill="#F5A020"/>
<path d="M10.6676 48.1081C12.5485 48.9275 14.5262 48.082 14.7087 45.892C14.7142 45.8242 14.7334 45.7583 14.7651 45.6983C14.7967 45.6383 14.8402 45.5854 14.8929 45.5428C14.9455 45.5003 15.0062 45.469 15.0713 45.4509C15.1363 45.4328 15.2043 45.4283 15.2711 45.4376C17.0043 45.6685 18.6791 46.1105 20.2955 46.7635C20.4008 46.8066 20.4851 46.8891 20.5303 46.9935C20.5755 47.0979 20.5782 47.2159 20.5376 47.3222C19.8746 49.069 20.6754 50.9908 22.776 50.786C22.9275 50.7711 23.0678 50.7239 23.1969 50.6445L24.4186 49.8698C24.476 49.8334 24.5443 49.8184 24.6117 49.8272C24.6791 49.8361 24.7412 49.8683 24.7873 49.9182C26.0561 51.3111 27.0059 52.8928 27.6366 54.6632C27.6812 54.7923 27.649 54.8966 27.5397 54.9761C26.8134 55.4975 25.9531 55.7545 25.7333 56.8011C25.706 56.9302 25.7569 57.0122 25.886 57.0469L77.6011 70.4813C77.6627 70.4969 77.7281 70.4873 77.7832 70.4546C77.8382 70.4218 77.8785 70.3686 77.8953 70.3063L83.0799 50.6817C83.0864 50.6574 83.0976 50.6346 83.1129 50.6147C83.1283 50.5948 83.1474 50.5781 83.1692 50.5656C83.191 50.5532 83.2151 50.5452 83.2401 50.5421C83.265 50.539 83.2903 50.5409 83.3145 50.5476L94.071 53.3894C94.1133 53.4006 94.1495 53.4284 94.1718 53.4667C94.1941 53.5049 94.2007 53.5508 94.1902 53.5943L86.0595 84.4632C86.0525 84.4888 86.0357 84.5107 86.0127 84.5239C85.9896 84.5372 85.9623 84.5408 85.9366 84.5339L23.4278 68.2801C23.3986 68.2731 23.3678 68.2749 23.3395 68.2853C23.3112 68.2958 23.2867 68.3144 23.2694 68.3386C23.252 68.3628 23.2425 68.3916 23.2422 68.4211C23.2419 68.4505 23.2508 68.4793 23.2677 68.5036L23.9195 69.4943C24.012 69.6359 24.0495 69.8064 24.0248 69.9733C24.0001 70.1402 23.9149 70.2919 23.7854 70.3994C22.4545 71.5093 20.9796 72.3734 19.3606 72.9916C19.2959 73.0168 19.2265 73.0276 19.1572 73.0234C19.0878 73.0191 19.0201 72.9999 18.9586 72.9671C18.8972 72.9342 18.8434 72.8885 18.8009 72.833C18.7585 72.7774 18.7283 72.7134 18.7126 72.6453C18.1316 70.1796 14.9657 70.5595 14.0271 72.5931C13.893 72.8799 13.9191 73.4162 13.7031 73.7589C13.6286 73.8756 13.5231 73.929 13.3865 73.919C11.5863 73.7725 9.84944 73.3628 8.17589 72.6899C8.11845 72.6665 8.07043 72.6248 8.0394 72.5715C8.00838 72.5182 7.99612 72.4564 8.00456 72.3957C8.12747 71.554 8.42543 70.6266 8.0865 69.8556C7.26338 67.9784 5.50913 68.4701 4.17947 69.4682C4.06525 69.5551 3.95848 69.5477 3.85916 69.4459C2.50591 68.0628 1.52263 66.4526 0.909328 64.6152C0.8696 64.4935 0.906846 64.4029 1.02106 64.3433C2.59654 63.5276 3.76232 61.5685 2.33582 60.0936C1.79204 59.5349 0.972647 59.3375 0.20167 59.1215C0.140646 59.1038 0.0874602 59.0661 0.0508948 59.0146C0.0143294 58.9632 -0.00342735 58.901 0.000547535 58.8384C0.117249 56.9637 0.551778 55.1673 1.30413 53.449C1.32941 53.3932 1.3755 53.3495 1.43257 53.3273C1.48963 53.305 1.55315 53.3059 1.60954 53.3298C3.56119 54.1753 5.87041 53.4192 5.20371 50.8791C5.09198 50.4508 4.7158 50.1305 4.55192 49.7394C4.44764 49.4986 4.49605 49.2937 4.69718 49.1249C6.09264 47.9578 7.6259 47.0118 9.29697 46.2868C9.42112 46.2321 9.51548 46.2644 9.58004 46.3836L10.3622 47.8287C10.4317 47.9554 10.5335 48.0485 10.6676 48.1081ZM20.9547 59.6615C20.9547 57.8884 20.2504 56.1879 18.9966 54.9342C17.7428 53.6804 16.0423 52.976 14.2692 52.976C13.3913 52.976 12.5219 53.1489 11.7108 53.4849C10.8996 53.8209 10.1626 54.3134 9.54183 54.9342C8.92103 55.555 8.42857 56.292 8.0926 57.1031C7.75662 57.9142 7.58369 58.7836 7.58369 59.6615C7.58369 60.5395 7.75662 61.4089 8.0926 62.22C8.42857 63.0311 8.92103 63.7681 9.54183 64.3889C10.1626 65.0097 10.8996 65.5022 11.7108 65.8382C12.5219 66.1742 13.3913 66.3471 14.2692 66.3471C16.0423 66.3471 17.7428 65.6427 18.9966 64.3889C20.2504 63.1351 20.9547 61.4347 20.9547 59.6615Z" fill="#F5A020"/>
<path d="M25.2995 111.388L33.5307 81.1559C33.5368 81.1331 33.5473 81.1117 33.5616 81.093C33.5759 81.0743 33.5938 81.0586 33.6142 81.0468C33.6347 81.0351 33.6572 81.0274 33.6806 81.0244C33.704 81.0214 33.7277 81.023 33.7505 81.0292L43.7285 83.6848C43.7737 83.6971 43.8123 83.7266 43.8359 83.767C43.8596 83.8074 43.8665 83.8554 43.8551 83.9008L38.9536 102.378C38.9474 102.401 38.9458 102.425 38.9488 102.448C38.9518 102.471 38.9595 102.494 38.9712 102.514C38.983 102.535 38.9987 102.553 39.0174 102.567C39.0361 102.581 39.0575 102.592 39.0803 102.598L58.6899 108.114C58.7352 108.127 58.7736 108.157 58.7966 108.199C58.8196 108.24 58.8255 108.288 58.8128 108.334L51.2148 135.653C51.2018 135.699 51.1714 135.737 51.1302 135.76C51.0891 135.783 51.0405 135.789 50.995 135.776L41.0133 132.998C40.968 132.985 40.9296 132.954 40.9066 132.913C40.8836 132.872 40.8777 132.823 40.8904 132.778L45.1699 117.351C45.1825 117.305 45.1767 117.257 45.1537 117.216C45.1306 117.174 45.0923 117.144 45.047 117.131L25.4224 111.608C25.3771 111.595 25.3387 111.564 25.3157 111.523C25.2927 111.482 25.2869 111.433 25.2995 111.388Z" fill="#F5A020"/>
<path d="M67.3568 156.656L68.3848 155.963C68.4989 155.887 68.6368 155.855 68.7726 155.874C68.9083 155.892 69.0327 155.96 69.1223 156.064C70.3216 157.442 71.2266 158.994 71.8374 160.719C71.8567 160.774 71.8642 160.832 71.8593 160.889C71.8544 160.947 71.8373 161.003 71.8091 161.053C71.7809 161.103 71.7422 161.147 71.6957 161.182C71.6493 161.216 71.596 161.24 71.5395 161.252C68.5487 161.885 69.5096 166.004 72.4259 166.124C72.4685 166.125 72.5103 166.136 72.5487 166.154C72.5872 166.172 72.6215 166.198 72.6497 166.23C72.6778 166.261 72.6993 166.298 72.7127 166.338C72.7261 166.378 72.7311 166.42 72.7276 166.462C72.5836 168.307 72.1615 170.085 71.4613 171.796C71.4378 171.853 71.3961 171.901 71.3428 171.932C71.2896 171.963 71.2277 171.976 71.167 171.967C70.3216 171.856 69.4314 171.539 68.6493 171.859C66.679 172.671 67.2824 174.403 68.2098 175.766C68.2453 175.818 68.2614 175.881 68.2552 175.944C68.2491 176.006 68.2212 176.065 68.1762 176.109C66.818 177.43 65.2413 178.398 63.4461 179.014C63.317 179.059 63.2127 179.025 63.1332 178.914C62.7496 178.388 62.4591 177.867 61.9712 177.498C60.1834 176.154 58.2243 177.409 58.0008 179.446C57.9866 179.575 57.9229 179.693 57.8234 179.775C57.7238 179.857 57.5963 179.897 57.4682 179.886C55.6109 179.737 53.8294 179.29 52.1235 178.545C51.9894 178.485 51.9584 178.392 52.0304 178.265C53.4755 175.699 50.7976 173.2 48.7118 175.223C48.6545 175.278 48.586 175.322 48.5108 175.35C48.4356 175.377 48.3553 175.389 48.2751 175.384C48.1949 175.379 48.1165 175.358 48.0448 175.321C47.9732 175.284 47.9099 175.233 47.8589 175.17C46.7391 173.777 45.8092 172.268 45.0693 170.641C45.0523 170.605 45.0431 170.565 45.042 170.525C45.041 170.485 45.0481 170.445 45.0631 170.407C45.078 170.37 45.1005 170.335 45.1291 170.306C45.1577 170.278 45.1918 170.255 45.2294 170.239C47.1562 169.445 47.6888 168.171 46.8272 166.418C46.317 165.375 45.4715 165.211 44.41 165.066C44.3501 165.057 44.2958 165.026 44.2588 164.979C44.2219 164.931 44.2053 164.872 44.2126 164.812C44.4212 162.955 44.8979 161.171 45.6428 159.46C45.6673 159.405 45.7093 159.36 45.7624 159.331C45.8155 159.302 45.8768 159.291 45.9371 159.3C47.818 159.568 49.7212 159.762 49.6355 157.084C49.6332 156.955 49.5944 156.83 49.5238 156.723L48.6895 155.449C48.6076 155.325 48.6212 155.213 48.7305 155.114C50.1408 153.818 51.7461 152.853 53.5463 152.22C53.5997 152.201 53.6577 152.201 53.7114 152.219C53.7652 152.236 53.8118 152.27 53.8442 152.317C54.3769 153.099 54.4998 154.011 55.7065 154.119C55.8058 154.129 55.8679 154.086 55.8927 153.989L69.5618 102.341C69.599 102.204 69.5493 102.117 69.4128 102.08L49.8441 96.8175C49.6777 96.7728 49.6169 96.666 49.6616 96.4972L52.5183 85.8636C52.5252 85.8378 52.5372 85.8136 52.5535 85.7925C52.5698 85.7714 52.5902 85.7537 52.6134 85.7405C52.6367 85.7274 52.6623 85.7189 52.6888 85.7158C52.7153 85.7126 52.7422 85.7148 52.7679 85.7221L83.5623 93.9607C83.59 93.9676 83.6139 93.9855 83.6285 94.0107C83.6432 94.0358 83.6475 94.0661 83.6405 94.0948L67.1297 156.492C67.1213 156.521 67.1222 156.553 67.1322 156.582C67.1423 156.61 67.161 156.636 67.1858 156.653C67.2106 156.671 67.2404 156.681 67.271 156.682C67.3016 156.682 67.3315 156.673 67.3568 156.656ZM65.137 165.628C65.137 163.855 64.4327 162.155 63.1789 160.901C61.9251 159.647 60.2246 158.943 58.4515 158.943C56.6784 158.943 54.9779 159.647 53.7241 160.901C52.4703 162.155 51.766 163.855 51.766 165.628C51.766 167.401 52.4703 169.102 53.7241 170.356C54.9779 171.609 56.6784 172.314 58.4515 172.314C60.2246 172.314 61.9251 171.609 63.1789 170.356C64.4327 169.102 65.137 167.401 65.137 165.628Z" fill="#F5A020"/>
<path d="M153.132 123.768L101.536 110.431C101.489 110.419 101.44 110.426 101.399 110.449C101.358 110.473 101.328 110.512 101.316 110.557L96.1314 130.256C96.1193 130.301 96.0899 130.338 96.0495 130.361C96.0091 130.384 95.9609 130.391 95.9154 130.379L85.2073 127.563C85.0559 127.524 85 127.428 85.0397 127.277L93.0847 96.6014C93.0925 96.5715 93.1061 96.5435 93.1248 96.5189C93.1434 96.4943 93.1667 96.4737 93.1933 96.4581C93.22 96.4425 93.2494 96.4324 93.28 96.4282C93.3106 96.424 93.3417 96.4259 93.3715 96.4338L155.694 112.557C155.722 112.565 155.751 112.565 155.779 112.557C155.807 112.549 155.832 112.534 155.852 112.513C155.872 112.492 155.886 112.466 155.892 112.437C155.898 112.409 155.897 112.38 155.888 112.352C155.646 111.581 154.51 111.157 155.582 110.304C156.864 109.283 158.319 108.459 159.947 107.831C160 107.811 160.056 107.803 160.112 107.807C160.168 107.811 160.222 107.828 160.271 107.855C160.32 107.883 160.362 107.921 160.394 107.967C160.427 108.013 160.448 108.066 160.458 108.121C160.629 109.123 161.396 109.82 162.432 109.883C164.068 109.987 165.071 109.096 165.441 107.209C165.456 107.131 165.499 107.061 165.562 107.012C165.624 106.964 165.702 106.939 165.78 106.944C167.608 107.054 169.366 107.462 171.054 108.17C171.178 108.222 171.229 108.315 171.207 108.449C170.924 110.08 170.655 112.032 172.905 112.267C173.762 112.356 174.343 111.872 175.006 111.373C175.06 111.331 175.127 111.311 175.195 111.317C175.263 111.322 175.325 111.353 175.371 111.403C176.662 112.776 177.635 114.346 178.291 116.114C178.316 116.183 178.316 116.259 178.29 116.327C178.264 116.396 178.214 116.452 178.149 116.487C175.557 117.82 175.516 121.254 178.797 121.589C178.908 121.601 179.01 121.654 179.082 121.738C179.154 121.822 179.191 121.93 179.185 122.04C179.083 123.867 178.668 125.622 177.941 127.303C177.915 127.361 177.871 127.409 177.815 127.439C177.759 127.469 177.694 127.479 177.632 127.467C176.909 127.329 176.265 126.956 175.557 127.154C173.337 127.776 173.754 129.705 174.73 131.239C174.807 131.361 174.791 131.47 174.682 131.567C173.274 132.806 171.705 133.791 169.974 134.521C169.929 134.54 169.881 134.549 169.832 134.548C169.783 134.547 169.735 134.535 169.691 134.513C169.647 134.492 169.608 134.461 169.576 134.423C169.545 134.385 169.522 134.341 169.508 134.294C168.715 131.415 164.771 131.958 164.532 134.957C164.528 135.021 164.51 135.083 164.481 135.14C164.451 135.197 164.41 135.248 164.361 135.289C164.311 135.33 164.253 135.361 164.191 135.379C164.129 135.398 164.064 135.403 164 135.396C162.212 135.195 160.492 134.744 158.841 134.044C158.712 133.989 158.656 133.894 158.674 133.757C158.771 133.02 159.091 132.256 158.838 131.567C158.46 130.542 157.726 130.043 156.636 130.07C155.899 130.085 155.374 130.651 154.733 131.012C154.688 131.037 154.637 131.046 154.587 131.038C154.537 131.03 154.491 131.005 154.458 130.968C153.179 129.552 152.212 127.946 151.556 126.148C151.536 126.089 151.538 126.026 151.561 125.969C151.584 125.912 151.628 125.865 151.683 125.839C152.356 125.516 152.921 125.077 153.377 124.52C153.427 124.459 153.461 124.387 153.476 124.309C153.491 124.232 153.485 124.152 153.461 124.077C153.436 124.002 153.393 123.934 153.336 123.88C153.278 123.826 153.208 123.788 153.132 123.768ZM171.616 121.18C171.616 120.302 171.443 119.432 171.107 118.621C170.772 117.81 170.279 117.073 169.658 116.452C169.037 115.831 168.3 115.339 167.489 115.003C166.678 114.667 165.809 114.494 164.931 114.494C163.158 114.494 161.457 115.198 160.203 116.452C158.95 117.706 158.245 119.406 158.245 121.18C158.245 122.953 158.95 124.653 160.203 125.907C161.457 127.161 163.158 127.865 164.931 127.865C165.809 127.865 166.678 127.692 167.489 127.356C168.3 127.02 169.037 126.528 169.658 125.907C170.279 125.286 170.772 124.549 171.107 123.738C171.443 122.927 171.616 122.057 171.616 121.18Z" fill="#F5A020"/>
<path d="M116.524 134.796L111.064 154.574C111.06 154.588 111.054 154.602 111.044 154.614C111.035 154.626 111.024 154.636 111.01 154.644C110.997 154.651 110.983 154.656 110.968 154.658C110.953 154.66 110.937 154.659 110.923 154.655L80.5156 146.555C80.5009 146.551 80.4871 146.544 80.475 146.535C80.463 146.525 80.4528 146.514 80.4452 146.501C80.4376 146.488 80.4327 146.473 80.4307 146.458C80.4287 146.443 80.4297 146.428 80.4336 146.413L83.0594 136.305C83.0633 136.29 83.0701 136.276 83.0793 136.264C83.0885 136.252 83.1 136.242 83.1132 136.234C83.1263 136.227 83.1409 136.222 83.1559 136.22C83.171 136.218 83.1863 136.219 83.201 136.223L101.827 141.061C101.856 141.069 101.888 141.065 101.914 141.051C101.941 141.036 101.96 141.012 101.969 140.983L107.429 121.209C107.433 121.194 107.44 121.181 107.449 121.169C107.458 121.157 107.47 121.146 107.483 121.139C107.496 121.131 107.51 121.126 107.526 121.124C107.541 121.122 107.556 121.123 107.571 121.127L135.043 128.606C135.057 128.61 135.071 128.617 135.083 128.626C135.095 128.635 135.105 128.647 135.113 128.66C135.121 128.673 135.126 128.688 135.128 128.703C135.13 128.718 135.129 128.733 135.125 128.748L132.372 138.871C132.368 138.886 132.362 138.899 132.352 138.911C132.343 138.923 132.332 138.934 132.318 138.941C132.305 138.949 132.291 138.954 132.276 138.956C132.261 138.958 132.245 138.957 132.231 138.953L116.666 134.714C116.651 134.71 116.636 134.709 116.621 134.711C116.606 134.713 116.591 134.718 116.578 134.726C116.565 134.734 116.553 134.744 116.544 134.756C116.535 134.768 116.528 134.782 116.524 134.796Z" fill="#F5A020"/>
</svg>
